<svg id="Capa_1" enable-background="new 0 0 512.072 512.072" height="512" viewBox="0 0 512.072 512.072" width="512" xmlns="http://www.w3.org/2000/svg"><g><path d="m497.052 0h-209c-8.284 0-15 6.716-15 15v122h-121c-8.284 0-15 6.716-15 15v121c-15.797 0-103.839 0-122 0-8.284 0-15 6.716-15 15 0 224.808-.22 209.942.474 212.683 1.114 4.413 4.278 8.305 8.785 10.174 3.977 1.644-8.118 1.143 214.74 1.143 8.284 0 15-6.716 15-15v-122h121c8.284 0 15-6.716 15-15v-121h122c8.284 0 15-6.716 15-15v-209c.001-8.284-6.714-15-14.999-15zm-194 103h42v34h-42zm72 64h34v42h-34zm0-30v-34h34v34zm0-64v-43h34v43zm64 30h43v34h-43zm43-30h-43v-43h43zm-137-43v43h-42v-43zm-136 355.787-95.212 96.213h-61.575l156.787-157.787zm-179 75v-62.574l96.213-95.213h61.574zm53.788-157.787-53.787 52.787v-52.787zm72.425 179 52.787-53.787v53.787zm188.787-137h-106v-57c0-7.053-4.874-12.913-11.344-14.532-2.667-.669 1.297-.468-60.656-.468v-106h178zm94-136v-42h43v42z"/><path d="m230.762 213.07c-1.835-8.798-10.585-13.949-19.07-11.42-8.61 2.806-12.201 11.29-9.99 18.71 2.801 8.595 11.273 12.206 18.71 9.99 7.874-2.567 11.719-9.967 10.35-17.28z"/><path d="m310.762 213.07c-1.835-8.798-10.585-13.949-19.07-11.42-8.61 2.806-12.199 11.295-9.99 18.71 2.82 8.654 11.411 12.208 18.7 9.99 7.742-2.471 11.751-9.849 10.36-17.28z"/><path d="m310.762 293.07c-1.843-8.837-10.624-13.937-19.07-11.42-8.749 2.851-12.163 11.418-9.99 18.71 2.783 8.539 11.221 12.222 18.71 9.99 7.872-2.566 11.719-9.967 10.35-17.28z"/></g></svg>