<svg id="Capa_1" enable-background="new 0 0 510.817 510.817" height="512" viewBox="0 0 510.817 510.817" width="512" xmlns="http://www.w3.org/2000/svg" fill="#39a6a3">
<g><path d="m194.798 147.813 56.821 186.341 83.762-236.383c-6.493-16.183-18.116-29.682-33.854-38.051-17.729-9.437-38.005-11.338-57.071-5.381-19.033 5.688-34.825 18.633-44.277 36.404-9.434 17.808-11.352 37.999-5.381 57.07zm57.267-17.497c-2.42-7.923 2.041-16.308 9.964-18.728s16.308 2.041 18.728 9.964-2.041 16.308-9.964 18.728-16.306-2.04-18.728-9.964z"/><path d="m240.138 399.355-73.049-239.541c-14.882-9.157-32.253-13.109-49.834-10.525-19.857 2.926-37.353 13.401-49.243 29.5-24.53 33.439-17.512 80.559 15.752 105.013zm-120.772-163.793c-6.659-4.93-8.061-14.322-3.131-20.981s14.322-8.061 20.981-3.131 8.06 14.323 3.131 20.981c-4.93 6.659-14.324 8.06-20.981 3.131z"/><path d="m74.891 459.883h195.287l-201.977-149.253c-17.424 1.598-33.658 8.762-46.19 21.216-14.211 14.142-22.02 33.023-22.011 52.996.055 41.421 33.652 75.068 74.891 75.041zm-14.879-74.981c.002-8.283 6.719-14.998 15.003-14.996 8.285 0 14.998 6.717 14.998 15.002-.002 8.284-6.72 15-15.004 14.997-8.285-.002-14.998-6.718-14.997-15.003z"/><path d="m460.863 58.023c-38.978-13.812-81.931 6.665-95.743 45.643l-90.514 255.437c-14.689 41.454 8.866 82.711 45.643 95.743 39.361 13.948 82.313-7.742 95.743-45.643l90.514-255.437c13.812-38.978-6.665-81.932-45.643-95.743zm-110.554 311.991c7.808 2.767 11.895 11.341 9.129 19.149s-11.341 11.895-19.149 9.129c-7.81-2.767-11.895-11.341-9.129-19.149 2.767-7.808 11.339-11.896 19.149-9.129zm90.514-255.437c7.808 2.767 11.895 11.341 9.129 19.149s-11.341 11.895-19.149 9.129c-7.81-2.767-11.895-11.341-9.129-19.149s11.339-11.896 19.149-9.129z"/></g></svg>