<svg id="Capa_1" enable-background="new 0 0 607.737 607.737" height="512" viewBox="0 0 607.737 607.737" width="512" xmlns="http://www.w3.org/2000/svg" fill="#ffffff">
<g><g id="Page-1_66_"><g id="_x30_67---Interior-Design" transform="translate(-1)"><path id="Shape_506_" d="m471.15 273.833c8.282-8.295 8.282-21.73 0-30.024l-30.252-30.252c-8.295-8.282-21.73-8.282-30.024 0l-15.028 15.007 60.287 60.287z"/><path id="Shape_505_" d="m147.913 514.918-8.681 30.599 30.599-8.681c-4.16-9.859-12.005-17.705-21.864-21.865z"/><path id="Shape_504_" d="m312.651 463.018 98.211 98.211c4.118 4.114 10.791 4.114 14.909 0l60.504-60.504c4.114-4.118 4.114-10.791 0-14.909l-22.57-22.581-22.581 22.581c-4.258 4.112-11.025 4.053-15.211-.132-4.186-4.186-4.244-10.953-.132-15.211l22.581-22.581-22.483-22.494-15.018 15.018c-4.258 4.112-11.025 4.053-15.211-.132-4.186-4.186-4.244-10.953-.132-15.211l15.018-15.018-22.472-22.472z"/><path id="Shape_503_" d="m160.663 470.277-6.749 23.644c17.056 6.381 30.512 19.837 36.893 36.893l23.644-6.749-16.124-37.631z"/><path id="Rectangle-path_38_" d="m383.51 242.648h31.782v85.266h-31.782z" transform="matrix(.707 -.707 .707 .707 -84.743 365.977)"/><path id="Shape_502_" d="m380.501 319.537-161.081 161.081 13.477 31.457 170.077-170.066z"/><path id="Shape_501_" d="m204.077 465.275 161.081-161.081-22.472-22.472-170.065 170.076z"/><path id="Shape_500_" d="m603.704 195.75-292.974-193.894c-1.727-1.178-3.769-1.81-5.859-1.812-2.032.004-4.016.616-5.697 1.758l-293.223 194.003c-5.148 3.744-6.485 10.852-3.049 16.211 1.527 2.48 4.007 4.222 6.858 4.818 2.701.573 5.519.008 7.791-1.563l281.33-185.93c3.626-2.368 8.31-2.368 11.936 0l281.265 185.854c2.269 1.595 5.092 2.191 7.813 1.649 2.894-.609 5.414-2.372 6.977-4.883 3.411-5.388 2.02-12.502-3.168-16.211z"/><path id="Shape_499_" d="m55.301 216.335v380.507c0 5.993 4.858 10.851 10.851 10.851h477.438c5.993 0 10.851-4.858 10.851-10.851v-380.518l-249.57-164.966zm340.218-18.132c8.042-8.079 18.983-12.604 30.382-12.565 11.401-.038 22.343 4.491 30.382 12.576l30.252 30.252c8.065 8.054 12.597 18.984 12.597 30.382s-4.532 22.328-12.597 30.382l-83.128 82.998 98.211 98.211c12.548 12.6 12.548 32.974 0 45.574l-60.504 60.504c-12.605 12.536-32.969 12.536-45.574 0l-98.265-98.157-60.407 60.396c-1.299 1.309-2.913 2.262-4.688 2.767l-88.597 25.293c-1.86.529-3.784.799-5.718.803-6.536 0-12.692-3.068-16.627-8.287s-5.191-11.982-3.393-18.265l25.348-88.543c.505-1.774 1.457-3.389 2.767-4.688l60.374-60.418-98.211-98.211c-12.548-12.6-12.548-32.974 0-45.574l60.504-60.504c12.602-12.542 32.971-12.542 45.574 0l98.265 98.157z"/><path id="Shape_498_" d="m221.46 221-22.58-22.58c-4.118-4.114-10.791-4.114-14.909 0l-60.504 60.504c-4.114 4.118-4.114 10.791 0 14.909l98.2 98.211 75.413-75.413-22.472-22.472-15.018 15.018c-4.258 4.112-11.025 4.053-15.211-.132-4.186-4.186-4.244-10.953-.132-15.211l15.05-15.018-22.472-22.472-22.581 22.581c-4.258 4.112-11.025 4.053-15.211-.132-4.186-4.186-4.244-10.953-.132-15.211z"/>
</g></g></g></svg>